<mxfile host="app.diagrams.net" agent="Mozilla/5.0 (Windows NT 10.0; Win64; x64) AppleWebKit/537.36 (KHTML, like Gecko) Chrome/136.0.0.0 Safari/537.36" version="27.0.5">
  <diagram name="Page-1" id="eMkREYkthDP1xwT7ayTM">
    <mxGraphModel grid="1" page="1" gridSize="10" guides="1" tooltips="1" connect="1" arrows="1" fold="1" pageScale="1" pageWidth="827" pageHeight="1169" math="0" shadow="0">
      <root>
        <mxCell id="0" />
        <mxCell id="1" parent="0" />
        <mxCell id="fXHXYunfjwP-fVmrbiTw-1" value="" style="ellipse;whiteSpace=wrap;html=1;" vertex="1" parent="1">
          <mxGeometry x="340" y="50" width="120" height="40" as="geometry" />
        </mxCell>
        <mxCell id="AXcFLFV-3-GRd7KV1lpf-35" style="edgeStyle=orthogonalEdgeStyle;rounded=0;orthogonalLoop=1;jettySize=auto;html=1;exitX=0.5;exitY=1;exitDx=0;exitDy=0;entryX=0.5;entryY=0;entryDx=0;entryDy=0;" edge="1" parent="1" source="fXHXYunfjwP-fVmrbiTw-2" target="AXcFLFV-3-GRd7KV1lpf-1">
          <mxGeometry relative="1" as="geometry" />
        </mxCell>
        <mxCell id="fXHXYunfjwP-fVmrbiTw-2" value="Pilotage" style="text;html=1;align=center;verticalAlign=middle;whiteSpace=wrap;rounded=0;" vertex="1" parent="1">
          <mxGeometry x="370" y="55" width="60" height="30" as="geometry" />
        </mxCell>
        <mxCell id="AXcFLFV-3-GRd7KV1lpf-36" style="edgeStyle=orthogonalEdgeStyle;rounded=0;orthogonalLoop=1;jettySize=auto;html=1;exitX=0.5;exitY=1;exitDx=0;exitDy=0;entryX=0.5;entryY=0;entryDx=0;entryDy=0;" edge="1" parent="1" source="AXcFLFV-3-GRd7KV1lpf-1" target="AXcFLFV-3-GRd7KV1lpf-4">
          <mxGeometry relative="1" as="geometry" />
        </mxCell>
        <mxCell id="AXcFLFV-3-GRd7KV1lpf-1" value="" style="rhombus;whiteSpace=wrap;html=1;" vertex="1" parent="1">
          <mxGeometry x="350" y="125" width="100" height="30" as="geometry" />
        </mxCell>
        <mxCell id="AXcFLFV-3-GRd7KV1lpf-2" value="&lt;font style=&quot;font-size: 10px;&quot;&gt;avancer == 1&lt;/font&gt;" style="text;html=1;align=center;verticalAlign=middle;whiteSpace=wrap;rounded=0;" vertex="1" parent="1">
          <mxGeometry x="360" y="130" width="80" height="20" as="geometry" />
        </mxCell>
        <mxCell id="AXcFLFV-3-GRd7KV1lpf-38" style="edgeStyle=orthogonalEdgeStyle;rounded=0;orthogonalLoop=1;jettySize=auto;html=1;exitX=0.5;exitY=1;exitDx=0;exitDy=0;" edge="1" parent="1" source="AXcFLFV-3-GRd7KV1lpf-4" target="AXcFLFV-3-GRd7KV1lpf-6">
          <mxGeometry relative="1" as="geometry" />
        </mxCell>
        <mxCell id="AXcFLFV-3-GRd7KV1lpf-4" value="avancer20()" style="shape=process;whiteSpace=wrap;html=1;backgroundOutline=1;" vertex="1" parent="1">
          <mxGeometry x="350" y="180" width="100" height="20" as="geometry" />
        </mxCell>
        <mxCell id="AXcFLFV-3-GRd7KV1lpf-5" value="" style="rounded=0;whiteSpace=wrap;html=1;" vertex="1" parent="1">
          <mxGeometry x="355" y="230" width="90" height="20" as="geometry" />
        </mxCell>
        <mxCell id="AXcFLFV-3-GRd7KV1lpf-39" style="edgeStyle=orthogonalEdgeStyle;rounded=0;orthogonalLoop=1;jettySize=auto;html=1;exitX=0.493;exitY=0.874;exitDx=0;exitDy=0;entryX=0.5;entryY=0;entryDx=0;entryDy=0;exitPerimeter=0;" edge="1" parent="1" source="AXcFLFV-3-GRd7KV1lpf-6" target="AXcFLFV-3-GRd7KV1lpf-12">
          <mxGeometry relative="1" as="geometry">
            <Array as="points">
              <mxPoint x="399" y="270" />
              <mxPoint x="400" y="270" />
            </Array>
          </mxGeometry>
        </mxCell>
        <mxCell id="AXcFLFV-3-GRd7KV1lpf-6" value="avancer == 0" style="text;html=1;align=center;verticalAlign=middle;whiteSpace=wrap;rounded=0;" vertex="1" parent="1">
          <mxGeometry x="355" y="230" width="90" height="25" as="geometry" />
        </mxCell>
        <mxCell id="AXcFLFV-3-GRd7KV1lpf-40" style="edgeStyle=orthogonalEdgeStyle;rounded=0;orthogonalLoop=1;jettySize=auto;html=1;exitX=0.5;exitY=1;exitDx=0;exitDy=0;entryX=0.5;entryY=0;entryDx=0;entryDy=0;" edge="1" parent="1" source="AXcFLFV-3-GRd7KV1lpf-12" target="AXcFLFV-3-GRd7KV1lpf-14">
          <mxGeometry relative="1" as="geometry" />
        </mxCell>
        <mxCell id="AXcFLFV-3-GRd7KV1lpf-12" value="" style="rhombus;whiteSpace=wrap;html=1;" vertex="1" parent="1">
          <mxGeometry x="350" y="290" width="100" height="30" as="geometry" />
        </mxCell>
        <mxCell id="AXcFLFV-3-GRd7KV1lpf-13" value="&lt;font style=&quot;font-size: 10px;&quot;&gt;tourner_g == 1&lt;/font&gt;" style="text;html=1;align=center;verticalAlign=middle;whiteSpace=wrap;rounded=0;" vertex="1" parent="1">
          <mxGeometry x="360" y="295" width="80" height="20" as="geometry" />
        </mxCell>
        <mxCell id="AXcFLFV-3-GRd7KV1lpf-42" style="edgeStyle=orthogonalEdgeStyle;rounded=0;orthogonalLoop=1;jettySize=auto;html=1;exitX=0.5;exitY=1;exitDx=0;exitDy=0;entryX=0.5;entryY=0;entryDx=0;entryDy=0;" edge="1" parent="1" source="AXcFLFV-3-GRd7KV1lpf-14" target="AXcFLFV-3-GRd7KV1lpf-16">
          <mxGeometry relative="1" as="geometry" />
        </mxCell>
        <mxCell id="AXcFLFV-3-GRd7KV1lpf-14" value="gauche()" style="shape=process;whiteSpace=wrap;html=1;backgroundOutline=1;" vertex="1" parent="1">
          <mxGeometry x="350" y="345" width="100" height="20" as="geometry" />
        </mxCell>
        <mxCell id="AXcFLFV-3-GRd7KV1lpf-15" value="" style="rounded=0;whiteSpace=wrap;html=1;" vertex="1" parent="1">
          <mxGeometry x="355" y="395" width="90" height="20" as="geometry" />
        </mxCell>
        <mxCell id="AXcFLFV-3-GRd7KV1lpf-43" style="edgeStyle=orthogonalEdgeStyle;rounded=0;orthogonalLoop=1;jettySize=auto;html=1;exitX=0.5;exitY=1;exitDx=0;exitDy=0;entryX=0.5;entryY=0;entryDx=0;entryDy=0;" edge="1" parent="1" source="AXcFLFV-3-GRd7KV1lpf-16" target="AXcFLFV-3-GRd7KV1lpf-17">
          <mxGeometry relative="1" as="geometry" />
        </mxCell>
        <mxCell id="AXcFLFV-3-GRd7KV1lpf-16" value="tourner_g == 0" style="text;html=1;align=center;verticalAlign=middle;whiteSpace=wrap;rounded=0;" vertex="1" parent="1">
          <mxGeometry x="355" y="395" width="90" height="20" as="geometry" />
        </mxCell>
        <mxCell id="AXcFLFV-3-GRd7KV1lpf-44" style="edgeStyle=orthogonalEdgeStyle;rounded=0;orthogonalLoop=1;jettySize=auto;html=1;exitX=0.5;exitY=1;exitDx=0;exitDy=0;entryX=0.5;entryY=0;entryDx=0;entryDy=0;" edge="1" parent="1" source="AXcFLFV-3-GRd7KV1lpf-17" target="AXcFLFV-3-GRd7KV1lpf-19">
          <mxGeometry relative="1" as="geometry" />
        </mxCell>
        <mxCell id="AXcFLFV-3-GRd7KV1lpf-17" value="" style="rhombus;whiteSpace=wrap;html=1;" vertex="1" parent="1">
          <mxGeometry x="350" y="470" width="100" height="30" as="geometry" />
        </mxCell>
        <mxCell id="AXcFLFV-3-GRd7KV1lpf-18" value="&lt;font style=&quot;font-size: 10px;&quot;&gt;tourner_d == 1&lt;/font&gt;" style="text;html=1;align=center;verticalAlign=middle;whiteSpace=wrap;rounded=0;" vertex="1" parent="1">
          <mxGeometry x="360" y="475" width="80" height="20" as="geometry" />
        </mxCell>
        <mxCell id="AXcFLFV-3-GRd7KV1lpf-45" style="edgeStyle=orthogonalEdgeStyle;rounded=0;orthogonalLoop=1;jettySize=auto;html=1;exitX=0.5;exitY=1;exitDx=0;exitDy=0;" edge="1" parent="1" source="AXcFLFV-3-GRd7KV1lpf-19" target="AXcFLFV-3-GRd7KV1lpf-21">
          <mxGeometry relative="1" as="geometry" />
        </mxCell>
        <mxCell id="AXcFLFV-3-GRd7KV1lpf-19" value="droite()" style="shape=process;whiteSpace=wrap;html=1;backgroundOutline=1;" vertex="1" parent="1">
          <mxGeometry x="350" y="525" width="100" height="20" as="geometry" />
        </mxCell>
        <mxCell id="AXcFLFV-3-GRd7KV1lpf-47" style="edgeStyle=orthogonalEdgeStyle;rounded=0;orthogonalLoop=1;jettySize=auto;html=1;exitX=0.5;exitY=1;exitDx=0;exitDy=0;entryX=0.5;entryY=0;entryDx=0;entryDy=0;" edge="1" parent="1" source="AXcFLFV-3-GRd7KV1lpf-20" target="AXcFLFV-3-GRd7KV1lpf-23">
          <mxGeometry relative="1" as="geometry" />
        </mxCell>
        <mxCell id="AXcFLFV-3-GRd7KV1lpf-20" value="" style="rounded=0;whiteSpace=wrap;html=1;" vertex="1" parent="1">
          <mxGeometry x="355" y="575" width="90" height="20" as="geometry" />
        </mxCell>
        <mxCell id="AXcFLFV-3-GRd7KV1lpf-21" value="tourner_d == 0" style="text;html=1;align=center;verticalAlign=middle;whiteSpace=wrap;rounded=0;" vertex="1" parent="1">
          <mxGeometry x="355" y="575" width="90" height="15" as="geometry" />
        </mxCell>
        <mxCell id="AXcFLFV-3-GRd7KV1lpf-48" style="edgeStyle=orthogonalEdgeStyle;rounded=0;orthogonalLoop=1;jettySize=auto;html=1;exitX=0.5;exitY=1;exitDx=0;exitDy=0;entryX=0.5;entryY=0;entryDx=0;entryDy=0;" edge="1" parent="1" source="AXcFLFV-3-GRd7KV1lpf-23" target="AXcFLFV-3-GRd7KV1lpf-25">
          <mxGeometry relative="1" as="geometry" />
        </mxCell>
        <mxCell id="AXcFLFV-3-GRd7KV1lpf-23" value="" style="rhombus;whiteSpace=wrap;html=1;" vertex="1" parent="1">
          <mxGeometry x="350" y="630" width="100" height="30" as="geometry" />
        </mxCell>
        <mxCell id="AXcFLFV-3-GRd7KV1lpf-24" value="&lt;span style=&quot;font-size: 10px;&quot;&gt;recule == 1&lt;/span&gt;" style="text;html=1;align=center;verticalAlign=middle;whiteSpace=wrap;rounded=0;" vertex="1" parent="1">
          <mxGeometry x="360" y="635" width="80" height="20" as="geometry" />
        </mxCell>
        <mxCell id="AXcFLFV-3-GRd7KV1lpf-49" style="edgeStyle=orthogonalEdgeStyle;rounded=0;orthogonalLoop=1;jettySize=auto;html=1;exitX=0.5;exitY=1;exitDx=0;exitDy=0;entryX=0.5;entryY=0;entryDx=0;entryDy=0;" edge="1" parent="1" source="AXcFLFV-3-GRd7KV1lpf-25" target="AXcFLFV-3-GRd7KV1lpf-27">
          <mxGeometry relative="1" as="geometry" />
        </mxCell>
        <mxCell id="AXcFLFV-3-GRd7KV1lpf-25" value="reculer()" style="shape=process;whiteSpace=wrap;html=1;backgroundOutline=1;" vertex="1" parent="1">
          <mxGeometry x="350" y="685" width="100" height="20" as="geometry" />
        </mxCell>
        <mxCell id="AXcFLFV-3-GRd7KV1lpf-26" value="" style="rounded=0;whiteSpace=wrap;html=1;" vertex="1" parent="1">
          <mxGeometry x="355" y="735" width="90" height="20" as="geometry" />
        </mxCell>
        <mxCell id="AXcFLFV-3-GRd7KV1lpf-50" style="edgeStyle=orthogonalEdgeStyle;rounded=0;orthogonalLoop=1;jettySize=auto;html=1;exitX=0.5;exitY=1;exitDx=0;exitDy=0;entryX=0.5;entryY=0;entryDx=0;entryDy=0;" edge="1" parent="1" source="AXcFLFV-3-GRd7KV1lpf-27" target="AXcFLFV-3-GRd7KV1lpf-28">
          <mxGeometry relative="1" as="geometry" />
        </mxCell>
        <mxCell id="AXcFLFV-3-GRd7KV1lpf-27" value="recule == 0" style="text;html=1;align=center;verticalAlign=middle;whiteSpace=wrap;rounded=0;" vertex="1" parent="1">
          <mxGeometry x="355" y="735" width="90" height="20" as="geometry" />
        </mxCell>
        <mxCell id="AXcFLFV-3-GRd7KV1lpf-51" style="edgeStyle=orthogonalEdgeStyle;rounded=0;orthogonalLoop=1;jettySize=auto;html=1;exitX=0.5;exitY=1;exitDx=0;exitDy=0;entryX=0.5;entryY=0;entryDx=0;entryDy=0;" edge="1" parent="1" source="AXcFLFV-3-GRd7KV1lpf-28" target="AXcFLFV-3-GRd7KV1lpf-30">
          <mxGeometry relative="1" as="geometry" />
        </mxCell>
        <mxCell id="AXcFLFV-3-GRd7KV1lpf-28" value="" style="rhombus;whiteSpace=wrap;html=1;" vertex="1" parent="1">
          <mxGeometry x="350" y="810" width="100" height="30" as="geometry" />
        </mxCell>
        <mxCell id="AXcFLFV-3-GRd7KV1lpf-29" value="&lt;span style=&quot;font-size: 10px;&quot;&gt;arret_robot == 1&lt;/span&gt;" style="text;html=1;align=center;verticalAlign=middle;whiteSpace=wrap;rounded=0;" vertex="1" parent="1">
          <mxGeometry x="360" y="815" width="80" height="20" as="geometry" />
        </mxCell>
        <mxCell id="AXcFLFV-3-GRd7KV1lpf-52" style="edgeStyle=orthogonalEdgeStyle;rounded=0;orthogonalLoop=1;jettySize=auto;html=1;exitX=0.5;exitY=1;exitDx=0;exitDy=0;entryX=0.5;entryY=0;entryDx=0;entryDy=0;" edge="1" parent="1" source="AXcFLFV-3-GRd7KV1lpf-30" target="AXcFLFV-3-GRd7KV1lpf-32">
          <mxGeometry relative="1" as="geometry" />
        </mxCell>
        <mxCell id="AXcFLFV-3-GRd7KV1lpf-30" value="stop_robot()" style="shape=process;whiteSpace=wrap;html=1;backgroundOutline=1;" vertex="1" parent="1">
          <mxGeometry x="350" y="865" width="100" height="20" as="geometry" />
        </mxCell>
        <mxCell id="AXcFLFV-3-GRd7KV1lpf-31" value="" style="rounded=0;whiteSpace=wrap;html=1;" vertex="1" parent="1">
          <mxGeometry x="355" y="915" width="90" height="20" as="geometry" />
        </mxCell>
        <mxCell id="AXcFLFV-3-GRd7KV1lpf-32" value="arret_robot == 0" style="text;html=1;align=center;verticalAlign=middle;whiteSpace=wrap;rounded=0;" vertex="1" parent="1">
          <mxGeometry x="355" y="915" width="90" height="20" as="geometry" />
        </mxCell>
        <mxCell id="AXcFLFV-3-GRd7KV1lpf-33" value="" style="rounded=1;whiteSpace=wrap;html=1;" vertex="1" parent="1">
          <mxGeometry x="370" y="977.5" width="50" height="20" as="geometry" />
        </mxCell>
        <mxCell id="AXcFLFV-3-GRd7KV1lpf-34" value="end" style="text;html=1;align=center;verticalAlign=middle;whiteSpace=wrap;rounded=0;" vertex="1" parent="1">
          <mxGeometry x="370" y="980" width="50" height="15" as="geometry" />
        </mxCell>
        <mxCell id="AXcFLFV-3-GRd7KV1lpf-53" style="edgeStyle=orthogonalEdgeStyle;rounded=0;orthogonalLoop=1;jettySize=auto;html=1;exitX=0.5;exitY=1;exitDx=0;exitDy=0;entryX=0.602;entryY=0;entryDx=0;entryDy=0;entryPerimeter=0;" edge="1" parent="1" source="AXcFLFV-3-GRd7KV1lpf-32" target="AXcFLFV-3-GRd7KV1lpf-34">
          <mxGeometry relative="1" as="geometry" />
        </mxCell>
        <mxCell id="AXcFLFV-3-GRd7KV1lpf-54" value="" style="ellipse;whiteSpace=wrap;html=1;aspect=fixed;" vertex="1" parent="1">
          <mxGeometry x="340" y="135" width="10" height="10" as="geometry" />
        </mxCell>
        <mxCell id="AXcFLFV-3-GRd7KV1lpf-57" value="" style="endArrow=none;html=1;rounded=0;" edge="1" parent="1">
          <mxGeometry width="50" height="50" relative="1" as="geometry">
            <mxPoint x="290" y="139.73" as="sourcePoint" />
            <mxPoint x="340" y="139.73" as="targetPoint" />
          </mxGeometry>
        </mxCell>
        <mxCell id="AXcFLFV-3-GRd7KV1lpf-58" value="" style="endArrow=none;html=1;rounded=0;" edge="1" parent="1">
          <mxGeometry width="50" height="50" relative="1" as="geometry">
            <mxPoint x="290" y="270" as="sourcePoint" />
            <mxPoint x="290" y="140" as="targetPoint" />
          </mxGeometry>
        </mxCell>
        <mxCell id="AXcFLFV-3-GRd7KV1lpf-59" value="" style="endArrow=classic;html=1;rounded=0;" edge="1" parent="1">
          <mxGeometry width="50" height="50" relative="1" as="geometry">
            <mxPoint x="290" y="270" as="sourcePoint" />
            <mxPoint x="400" y="270" as="targetPoint" />
          </mxGeometry>
        </mxCell>
        <mxCell id="AXcFLFV-3-GRd7KV1lpf-61" value="" style="endArrow=none;html=1;rounded=0;" edge="1" parent="1">
          <mxGeometry width="50" height="50" relative="1" as="geometry">
            <mxPoint x="290" y="430.27" as="sourcePoint" />
            <mxPoint x="290" y="310" as="targetPoint" />
          </mxGeometry>
        </mxCell>
        <mxCell id="AXcFLFV-3-GRd7KV1lpf-62" value="" style="ellipse;whiteSpace=wrap;html=1;aspect=fixed;" vertex="1" parent="1">
          <mxGeometry x="340" y="300" width="10" height="10" as="geometry" />
        </mxCell>
        <mxCell id="AXcFLFV-3-GRd7KV1lpf-63" value="" style="endArrow=none;html=1;rounded=0;entryX=0;entryY=0.5;entryDx=0;entryDy=0;" edge="1" parent="1" target="AXcFLFV-3-GRd7KV1lpf-62">
          <mxGeometry width="50" height="50" relative="1" as="geometry">
            <mxPoint x="290" y="310" as="sourcePoint" />
            <mxPoint x="420" y="260" as="targetPoint" />
          </mxGeometry>
        </mxCell>
        <mxCell id="AXcFLFV-3-GRd7KV1lpf-64" value="" style="endArrow=classic;html=1;rounded=0;" edge="1" parent="1">
          <mxGeometry width="50" height="50" relative="1" as="geometry">
            <mxPoint x="290" y="430" as="sourcePoint" />
            <mxPoint x="400" y="430" as="targetPoint" />
          </mxGeometry>
        </mxCell>
        <mxCell id="AXcFLFV-3-GRd7KV1lpf-65" value="" style="ellipse;whiteSpace=wrap;html=1;aspect=fixed;" vertex="1" parent="1">
          <mxGeometry x="340" y="480" width="10" height="10" as="geometry" />
        </mxCell>
        <mxCell id="AXcFLFV-3-GRd7KV1lpf-70" value="" style="ellipse;whiteSpace=wrap;html=1;aspect=fixed;" vertex="1" parent="1">
          <mxGeometry x="340" y="480" width="10" height="10" as="geometry" />
        </mxCell>
        <mxCell id="AXcFLFV-3-GRd7KV1lpf-71" value="" style="endArrow=none;html=1;rounded=0;" edge="1" parent="1">
          <mxGeometry width="50" height="50" relative="1" as="geometry">
            <mxPoint x="290" y="484.73" as="sourcePoint" />
            <mxPoint x="340" y="484.73" as="targetPoint" />
          </mxGeometry>
        </mxCell>
        <mxCell id="AXcFLFV-3-GRd7KV1lpf-72" value="" style="endArrow=none;html=1;rounded=0;" edge="1" parent="1">
          <mxGeometry width="50" height="50" relative="1" as="geometry">
            <mxPoint x="290" y="610" as="sourcePoint" />
            <mxPoint x="290" y="485" as="targetPoint" />
          </mxGeometry>
        </mxCell>
        <mxCell id="AXcFLFV-3-GRd7KV1lpf-73" value="" style="endArrow=classic;html=1;rounded=0;" edge="1" parent="1">
          <mxGeometry width="50" height="50" relative="1" as="geometry">
            <mxPoint x="290" y="610" as="sourcePoint" />
            <mxPoint x="400" y="610" as="targetPoint" />
          </mxGeometry>
        </mxCell>
        <mxCell id="AXcFLFV-3-GRd7KV1lpf-74" value="" style="ellipse;whiteSpace=wrap;html=1;aspect=fixed;" vertex="1" parent="1">
          <mxGeometry x="340" y="640" width="10" height="10" as="geometry" />
        </mxCell>
        <mxCell id="AXcFLFV-3-GRd7KV1lpf-75" value="" style="endArrow=none;html=1;rounded=0;" edge="1" parent="1">
          <mxGeometry width="50" height="50" relative="1" as="geometry">
            <mxPoint x="290" y="644.73" as="sourcePoint" />
            <mxPoint x="340" y="644.73" as="targetPoint" />
          </mxGeometry>
        </mxCell>
        <mxCell id="AXcFLFV-3-GRd7KV1lpf-76" value="" style="endArrow=none;html=1;rounded=0;" edge="1" parent="1">
          <mxGeometry width="50" height="50" relative="1" as="geometry">
            <mxPoint x="290" y="775" as="sourcePoint" />
            <mxPoint x="290" y="645" as="targetPoint" />
          </mxGeometry>
        </mxCell>
        <mxCell id="AXcFLFV-3-GRd7KV1lpf-78" value="" style="endArrow=classic;html=1;rounded=0;" edge="1" parent="1">
          <mxGeometry width="50" height="50" relative="1" as="geometry">
            <mxPoint x="290" y="770" as="sourcePoint" />
            <mxPoint x="400" y="770" as="targetPoint" />
          </mxGeometry>
        </mxCell>
        <mxCell id="AXcFLFV-3-GRd7KV1lpf-79" value="" style="ellipse;whiteSpace=wrap;html=1;aspect=fixed;" vertex="1" parent="1">
          <mxGeometry x="340" y="820" width="10" height="10" as="geometry" />
        </mxCell>
        <mxCell id="AXcFLFV-3-GRd7KV1lpf-80" value="" style="endArrow=none;html=1;rounded=0;entryX=0;entryY=0.5;entryDx=0;entryDy=0;" edge="1" parent="1" target="AXcFLFV-3-GRd7KV1lpf-79">
          <mxGeometry width="50" height="50" relative="1" as="geometry">
            <mxPoint x="210" y="825" as="sourcePoint" />
            <mxPoint x="280" y="830" as="targetPoint" />
          </mxGeometry>
        </mxCell>
        <mxCell id="AXcFLFV-3-GRd7KV1lpf-81" value="" style="endArrow=none;html=1;rounded=0;" edge="1" parent="1">
          <mxGeometry width="50" height="50" relative="1" as="geometry">
            <mxPoint x="210" y="830" as="sourcePoint" />
            <mxPoint x="210" y="110" as="targetPoint" />
          </mxGeometry>
        </mxCell>
        <mxCell id="AXcFLFV-3-GRd7KV1lpf-82" value="" style="endArrow=classic;html=1;rounded=0;" edge="1" parent="1">
          <mxGeometry width="50" height="50" relative="1" as="geometry">
            <mxPoint x="210" y="110" as="sourcePoint" />
            <mxPoint x="400" y="110" as="targetPoint" />
          </mxGeometry>
        </mxCell>
      </root>
    </mxGraphModel>
  </diagram>
</mxfile>
